Coordinates
version=1
nRows=8
nColumns=36
inDegrees=yes

Units are S.I. units (second, meters, Newtons, ...)
If the header above contains a line with 'inDegrees', this indicates whether rotational values are in degrees (yes) or radians (no).

endheader
time	pelvis_tilt	pelvis_list	pelvis_rotation	pelvis_tx	pelvis_ty	pelvis_tz	hip_flexion_r	hip_adduction_r	hip_rotation_r	knee_angle_r	knee_angle_r_beta	ankle_angle_r	subtalar_angle_r	mtp_angle_r	hip_flexion_l	hip_adduction_l	hip_rotation_l	knee_angle_l	knee_angle_l_beta	ankle_angle_l	subtalar_angle_l	mtp_angle_l	lumbar_extension	lumbar_bending	lumbar_rotation	arm_flex_r	arm_add_r	arm_rot_r	elbow_flex_r	pro_sup_r	arm_flex_l	arm_add_l	arm_rot_l	elbow_flex_l	pro_sup_l
      0.00000000	     -2.67845405	     -2.87893854	      3.38482839	      0.42463704	      0.87721670	     -0.00856040	      5.32445923	     -6.28073642	     -5.80424719	      9.92902162	      0.17329412	     12.60628471	     -4.11212867	     -6.26144061	      9.26593236	     -7.19009317	     -0.38429001	     11.19688895	      0.19542258	      8.96364878	     -9.71655337	     -6.26144061	      0.80739190	      2.90261919	      0.88395413	     34.11421717	      4.37962432	     56.49935514	    126.39789993	    106.46734427	     31.89310546	     11.79703739	     64.18953902	    117.24696977	    102.47560322
      0.01666670	     -1.41878048	     -2.23426833	      2.93979616	      0.42364441	      0.88089593	     -0.00786517	      4.38311310	     -6.43296345	     -4.79605197	     10.10335209	      0.17633676	     14.27247627	     -4.23110563	     -6.35827975	      7.80757942	     -6.45539759	     -0.30471709	     11.32594409	      0.19767502	      9.73858848	    -10.82779947	     -6.35827975	     -1.30039788	      3.05141749	      0.59340438	     36.73695616	      4.89821908	     60.54066674	    127.25391313	    105.69584103	     32.82622978	     10.12530672	     65.36949760	    121.08566061	    100.58065888
      0.03333330	     -1.03760679	     -1.22787323	      2.82154769	      0.42287280	      0.88191689	     -0.00690547	      3.71923129	     -7.44490004	     -5.49863701	      9.44965210	      0.16492754	     14.03732688	     -3.92003850	     -6.50386326	      7.08596900	     -5.42847204	     -0.79787252	     10.96871033	      0.19144011	     10.43223366	    -10.41992638	     -6.50386326	     -2.38992727	      1.92211667	      1.33274927	     36.68370121	      5.17767461	     62.08379284	    127.98504092	    106.03933526	     33.58519401	      9.57481199	     66.48442949	    123.54927622	     98.71617699
      0.05000000	      0.20068956	     -0.71640895	      2.62739116	      0.42129675	      0.88417445	     -0.00630181	      2.35210371	     -8.13624885	     -5.87905793	      9.06529511	      0.15821925	     14.16829610	     -3.04185906	     -6.73668637	      5.26376081	     -5.00518201	     -1.30703413	     10.16801990	      0.17746543	     10.43949773	     -9.71614303	     -6.73668637	     -4.25784421	      1.59925922	      2.04563596	     36.94070163	      5.26259523	     62.59612432	    127.77418875	    105.91533045	     34.63353212	      9.52280482	     66.93403011	    124.09694992	     94.75045121
      0.06666670	      1.02336203	     -0.55761107	      2.47375980	      0.42046891	      0.88526232	     -0.00594828	      1.39498238	     -8.33383147	     -5.80282479	      8.78072816	      0.15325262	     13.99260930	     -2.87637175	     -6.76640327	      4.07422360	     -4.86026443	     -1.48965045	      9.59773292	      0.16751204	     10.21671259	     -9.44559599	     -6.76640327	     -5.38956098	      1.68428264	      2.57745093	     36.97465557	      5.11285318	     62.94876508	    127.48759336	    105.34023701	     35.10651943	      9.76157365	     67.64198573	    124.14400037	     93.77498748
      0.08333330	      1.69144444	     -0.43982166	      2.26021182	      0.41972982	      0.88398604	     -0.00570959	      0.24558739	     -8.42206072	     -6.02633442	      8.08417843	      0.14109553	     13.98927408	     -2.40449292	     -6.82567452	      3.25988718	     -4.73017239	     -1.77436378	      9.29458570	      0.16222112	     10.10237491	     -9.25687431	     -6.82567452	     -6.14465763	      1.74341471	      3.00117074	     37.15848191	      4.98415137	     62.72140785	    127.31994232	    104.41379787	     35.52811698	     10.05066565	     68.09294115	    123.92209524	     91.90177982
      0.10000000	      2.14337032	     -0.38497434	      1.94949557	      0.41891744	      0.88661692	     -0.00532394	     -0.54484648	     -8.45620032	     -6.19710310	      7.46641684	      0.13031356	     13.85614283	     -2.00765822	     -6.92106462	      2.66018522	     -4.66965556	     -2.24101934	      9.02878490	      0.15758202	      9.83768839	     -9.03663917	     -6.92106462	     -6.64564964	      1.80661288	      3.41994580	     37.37157577	      4.78737231	     62.45908509	    127.10073943	    101.76593490	     35.75979076	     10.23495924	     68.49990146	    123.68918230	     88.55374973
      0.11666670	      2.50361350	     -0.33456459	      1.79337852	      0.41840521	      0.88700178	     -0.00499985	     -1.22217508	     -8.45380050	     -6.50557162	      6.89417219	      0.12032600	     13.79576641	     -1.61639150	     -6.94504707	      2.21967800	     -4.60621352	     -2.38713453	      8.87044501	      0.15481847	      9.32297784	     -9.23436561	     -6.94504707	     -7.05098510	      1.83380206	      3.65802805	     37.50758527	      4.71594315	     61.99176169	    126.89717710	    101.58240808	     35.93370386	     10.32041657	     68.73124890	    123.58075490	     87.59456595
